<?xml version="1.0" encoding="iso-8859-1"?>
<!-- Uploaded to: SVG Repo, www.svgrepo.com, Generator: SVG Repo Mixer Tools -->
<!DOCTYPE svg PUBLIC "-//W3C//DTD SVG 1.1//EN" "http://www.w3.org/Graphics/SVG/1.1/DTD/svg11.dtd">
<svg height="650px" width="650px" version="1.1" id="Capa_1" xmlns="http://www.w3.org/2000/svg" xmlns:xlink="http://www.w3.org/1999/xlink" 
	 viewBox="0 0 60.381 60.381" xml:space="preserve">
<g>
	<path style="fill:#fff;" d="M13.357,14.439h33.668c0.006-0.001,0.013,0,0.02,0c1.657,0,3-1.343,3-3
		c0-0.128-0.008-0.254-0.023-0.378C49.808,0.001,40.225,0,34.473,0c-0.678,0-1.372,0.005-2.08,0.011
		c-1.442,0.011-2.964,0.011-4.404,0C27.281,0.005,26.587,0,25.909,0c-5.817,0-15.552,0-15.552,11.439
		C10.357,13.096,11.7,14.439,13.357,14.439z"/>
	<path style="fill:#fff;" d="M51.952,56.303l-8.01-20.827c3.743-3.61,6.084-8.663,6.084-14.262c0-1.657-1.343-3-3-3H13.357
		c-1.657,0-3,1.343-3,3c0,5.598,2.34,10.651,6.083,14.261l-8.01,20.828c-0.595,1.546,0.177,3.282,1.724,3.877
		c0.354,0.136,0.718,0.201,1.076,0.201c1.205,0,2.342-0.732,2.801-1.924l4.326-11.25h8.835v7.002c0,1.657,1.343,3,3,3s3-1.343,3-3
		v-7.002h8.834l4.327,11.25c0.458,1.192,1.595,1.924,2.8,1.924c0.358,0,0.722-0.065,1.077-0.201
		C51.776,59.585,52.547,57.85,51.952,56.303z M19.51,44.208l1.996-5.189c1.766,0.865,3.675,1.471,5.686,1.778v3.41H19.51z
		 M33.191,44.208v-3.411c2.01-0.307,3.919-0.913,5.685-1.778l1.996,5.189H33.191z"/>
</g>
</svg>