<?xml version="1.0" encoding="iso-8859-1"?>
<!-- Uploaded to: SVG Repo, www.svgrepo.com, Generator: SVG Repo Mixer Tools -->
<!DOCTYPE svg PUBLIC "-//W3C//DTD SVG 1.1//EN" "http://www.w3.org/Graphics/SVG/1.1/DTD/svg11.dtd">
<svg fill="#fff" height="800px" width="800px" version="1.1" id="Capa_1" xmlns="http://www.w3.org/2000/svg" xmlns:xlink="http://www.w3.org/1999/xlink" 
	 viewBox="0 0 50 50" xml:space="preserve">
<g>
	<path d="M6,37c-0.552,0-1,0.447-1,1v6c0,0.553,0.448,1,1,1s1-0.447,1-1v-6C7,37.447,6.552,37,6,37z"/>
	<path d="M6,31c-0.552,0-1,0.447-1,1v2.997c0,0.553,0.448,1,1,1s1-0.447,1-1V32C7,31.447,6.552,31,6,31z"/>
	<path d="M31,37c-0.552,0-1,0.447-1,1v6c0,0.553,0.448,1,1,1s1-0.447,1-1v-6C32,37.447,31.552,37,31,37z"/>
	<path d="M31,31c-0.552,0-1,0.447-1,1v2.997c0,0.553,0.448,1,1,1s1-0.447,1-1V32C32,31.447,31.552,31,31,31z"/>
	<path d="M49.986,25.913c0.03-0.538-0.034-1.083-0.206-1.607C48.332,19.868,44.493,17,40,17h-1v-6.801l-0.014-0.286
		c0.03-0.538-0.034-1.083-0.206-1.607C37.574,4.609,35.979,1,31,1H20c-4.979,0-6.574,3.609-7.781,7.306
		c-0.116,0.357-0.182,0.723-0.204,1.091L12,9.4V17H8c-4.979,0-6.574,3.609-7.781,7.306c-0.116,0.357-0.182,0.723-0.204,1.091L0,25.4
		v17.356C0,46.199,2.801,49,6.244,49h14.513c1.644,0,3.137-0.644,4.253-1.686C26.156,48.38,27.665,49,29.244,49h14.513
		C47.199,49,50,46.199,50,42.756V26.199L49.986,25.913z M43,23.5c0,2.298-3.27,3.5-6.5,3.5S30,25.798,30,23.5s3.27-3.5,6.5-3.5
		S43,21.202,43,23.5z M25.5,4C28.73,4,32,5.202,32,7.5S28.73,11,25.5,11S19,9.798,19,7.5S22.27,4,25.5,4z M14,13.347
		c0.052,0.033,0.11,0.058,0.164,0.089c0.086,0.05,0.173,0.098,0.262,0.142c0.071,0.034,0.143,0.065,0.215,0.095
		c0.1,0.042,0.202,0.079,0.305,0.113c0.069,0.023,0.138,0.045,0.209,0.064c0.118,0.032,0.239,0.057,0.36,0.078
		c0.061,0.011,0.12,0.024,0.182,0.033c0.186,0.024,0.374,0.04,0.565,0.04h18.474c0.191,0,0.379-0.016,0.565-0.04
		c0.062-0.008,0.121-0.022,0.182-0.033c0.122-0.021,0.242-0.046,0.36-0.078c0.071-0.019,0.14-0.041,0.209-0.064
		c0.104-0.034,0.205-0.072,0.305-0.113c0.073-0.03,0.145-0.061,0.215-0.095c0.089-0.043,0.176-0.092,0.262-0.142
		c0.054-0.031,0.112-0.056,0.164-0.089V17h-9c-2.663,0-3.163,1.184-3.383,2.664c-0.14-0.186-0.289-0.367-0.449-0.542
		c-0.149-0.165-0.308-0.319-0.473-0.468c-0.011-0.01-0.02-0.021-0.031-0.03c-0.911-0.814-2.071-1.378-3.594-1.558
		c-0.025-0.003-0.046-0.009-0.071-0.011C19.682,17.019,19.35,17,19,17h-5V13.347z M13.5,20c3.23,0,6.5,1.202,6.5,3.5
		S16.73,27,13.5,27S7,25.798,7,23.5S10.27,20,13.5,20z M20.756,47H6.244C3.904,47,2,45.097,2,42.757v-13.41
		c0.052,0.033,0.11,0.058,0.164,0.089c0.086,0.05,0.173,0.098,0.262,0.142c0.071,0.034,0.143,0.065,0.215,0.095
		c0.1,0.042,0.202,0.079,0.305,0.113c0.069,0.023,0.138,0.045,0.209,0.064c0.118,0.032,0.239,0.057,0.36,0.078
		c0.061,0.011,0.12,0.024,0.182,0.033C3.884,29.984,4.072,30,4.263,30h18.474c0.831,0,1.607-0.236,2.263-0.653v13.409l0,0.004
		c0,0.258-0.032,0.507-0.076,0.752c-0.019,0.102-0.047,0.202-0.073,0.302c-0.034,0.132-0.074,0.26-0.12,0.387
		c-0.048,0.128-0.098,0.255-0.158,0.379c-0.036,0.075-0.078,0.146-0.119,0.218c-0.082,0.146-0.164,0.292-0.264,0.431l-0.01,0.014
		C23.407,46.302,22.165,47,20.756,47z M48,42.756C48,45.096,46.096,47,43.756,47H29.244c-1.146,0-2.21-0.453-3.003-1.262
		c0.235-0.431,0.415-0.896,0.544-1.38c0.012-0.044,0.023-0.089,0.034-0.133c0.046-0.188,0.082-0.38,0.11-0.574
		c0.008-0.056,0.019-0.111,0.026-0.167C26.982,43.244,27,43.003,27,42.757v-0.001V29.991C27.087,29.997,27.175,30,27.263,30h18.474
		c0.191,0,0.379-0.016,0.565-0.04c0.062-0.008,0.121-0.022,0.182-0.033c0.122-0.021,0.242-0.046,0.36-0.078
		c0.071-0.019,0.14-0.041,0.209-0.064c0.103-0.034,0.205-0.072,0.305-0.113c0.073-0.03,0.145-0.061,0.216-0.095
		c0.089-0.043,0.175-0.092,0.261-0.141c0.054-0.031,0.112-0.056,0.165-0.089V42.756z"/>
</g>
</svg>